<svg width="8" height="20" viewBox="0 0 8 20" fill="none" xmlns="http://www.w3.org/2000/svg">
<path d="M1.71449 4.20599L2.50467 3.4058V7.99687C2.50467 8.26215 2.61005 8.51656 2.79763 8.70414C2.98521 8.89172 3.23963 8.9971 3.5049 8.9971C3.77018 8.9971 4.0246 8.89172 4.21217 8.70414C4.39975 8.51656 4.50514 8.26215 4.50514 7.99687V3.4058L5.29532 4.20599C5.3883 4.29974 5.49893 4.37415 5.62082 4.42493C5.74271 4.47571 5.87344 4.50186 6.00548 4.50186C6.13753 4.50186 6.26826 4.47571 6.39015 4.42493C6.51204 4.37415 6.62266 4.29974 6.71565 4.20599C6.8094 4.113 6.88381 4.00238 6.93459 3.88049C6.98537 3.7586 7.01152 3.62787 7.01152 3.49582C7.01152 3.36378 6.98537 3.23305 6.93459 3.11116C6.88381 2.98927 6.8094 2.87864 6.71565 2.78566L4.21507 0.28508C4.11994 0.194018 4.00777 0.122636 3.88499 0.0750309C3.64147 -0.0250103 3.36833 -0.0250103 3.12482 0.0750309C3.00204 0.122636 2.88987 0.194018 2.79474 0.28508L0.294159 2.78566C0.105812 2.97401 0 3.22946 0 3.49582C0 3.76219 0.105812 4.01764 0.294159 4.20599C0.482507 4.39434 0.737961 4.50015 1.00432 4.50015C1.27069 4.50015 1.52614 4.39434 1.71449 4.20599ZM5.29532 15.7887L4.50514 16.5889V11.9978C4.50514 11.7325 4.39975 11.4781 4.21217 11.2905C4.0246 11.1029 3.77018 10.9976 3.5049 10.9976C3.23963 10.9976 2.98521 11.1029 2.79763 11.2905C2.61005 11.4781 2.50467 11.7325 2.50467 11.9978V16.5889L1.71449 15.7887C1.62123 15.6954 1.51051 15.6214 1.38866 15.571C1.26681 15.5205 1.13621 15.4945 1.00432 15.4945C0.872434 15.4945 0.741836 15.5205 0.619985 15.571C0.498135 15.6214 0.38742 15.6954 0.294159 15.7887C0.200899 15.8819 0.126921 15.9927 0.076449 16.1145C0.025977 16.2364 0 16.367 0 16.4988C0 16.6307 0.025977 16.7613 0.076449 16.8832C0.126921 17.005 0.200899 17.1157 0.294159 17.209L2.79474 19.7096C2.88987 19.8006 3.00204 19.872 3.12482 19.9196C3.24454 19.9726 3.374 19.9999 3.5049 19.9999C3.63581 19.9999 3.76526 19.9726 3.88499 19.9196C4.00777 19.872 4.11994 19.8006 4.21507 19.7096L6.71565 17.209C6.904 17.0207 7.00981 16.7652 7.00981 16.4988C7.00981 16.2325 6.904 15.977 6.71565 15.7887C6.5273 15.6003 6.27185 15.4945 6.00548 15.4945C5.73912 15.4945 5.48367 15.6003 5.29532 15.7887Z" fill="#5555FF"/>
</svg>
